<svg xmlns="http://www.w3.org/2000/svg" xmlns:xlink="http://www.w3.org/1999/xlink" viewBox="0 0 355 265.63"><defs><style>.cls-1,.cls-2{fill:#6d4897;}.cls-1,.cls-4,.cls-5,.cls-6,.cls-7,.cls-9{stroke:#fff;stroke-miterlimit:10;}.cls-3{clip-path:url(#clip-path);}.cls-4,.cls-5,.cls-6{fill:#232323;}.cls-4{opacity:0.2;}.cls-5{opacity:0.4;}.cls-6{opacity:0.6;}.cls-7{fill:none;}.cls-8{clip-path:url(#clip-path-2);}.cls-9{fill:#ffe66a;}</style><clipPath id="clip-path"><path class="cls-1" d="M234.5,264.13H179.93a3.71,3.71,0,0,1-2.94-5.95c17-22.69,30.23-68.1,30.23-68.1s13.27,45.41,30.22,68.1A3.7,3.7,0,0,1,234.5,264.13Z"/></clipPath><clipPath id="clip-path-2"><path class="cls-1" d="M82.63,2.08H137.2a3.71,3.71,0,0,1,2.94,6c-16.95,22.69-30.22,68.09-30.22,68.09S96.65,30.73,79.69,8A3.71,3.71,0,0,1,82.63,2.08Z"/></clipPath></defs><g id="Calque_2" data-name="Calque 2"><g id="Calque_1-2" data-name="Calque 1"><path class="cls-2" d="M234.5,264.13H179.93a3.71,3.71,0,0,1-2.94-5.95c17-22.69,30.23-68.1,30.23-68.1s13.27,45.41,30.22,68.1A3.7,3.7,0,0,1,234.5,264.13Z"/><g class="cls-3"><path class="cls-4" d="M207.22,239.63a32.77,32.77,0,0,0,13.42-2.53,34,34,0,0,1,7-2V229.5a21.4,21.4,0,0,1-8-4.47c-3.21-2.52-6.24-4.9-12.44-4.9s-9.24,2.38-12.44,4.9c-2.29,1.79-4.63,3.62-8.16,4.52v5.5a33.61,33.61,0,0,1,7.17,2A32.83,32.83,0,0,0,207.22,239.63Z"/><path class="cls-5" d="M233.72,234.13v.5a37.06,37.06,0,0,0-6.1.45,34,34,0,0,0-7,2,36.88,36.88,0,0,1-26.85,0,33.61,33.61,0,0,0-7.17-2,37.61,37.61,0,0,0-5.9-.42v-.5h-1.1v12.48l1.1,0c3.12,0,4.66,1.4,6.29,2.87s3.45,3.13,7,3.13,5.26-1.59,6.95-3.13,3.17-2.87,6.29-2.87,4.66,1.4,6.29,2.88,3.46,3.12,7,3.12,5.27-1.59,7-3.13a11,11,0,0,1,3.46-2.39,7.62,7.62,0,0,1,2.83-.48l1.9,0V234.13Z"/><path class="cls-6" d="M235.62,246.61l-1.9,0a7.62,7.62,0,0,0-2.83.48,11,11,0,0,0-3.46,2.39c-1.7,1.54-3.46,3.13-7,3.13s-5.26-1.59-7-3.12-3.17-2.88-6.29-2.88-4.66,1.4-6.29,2.87-3.45,3.13-6.95,3.13-5.26-1.59-7-3.13-3.17-2.87-6.29-2.87l-1.1,0-5-.1v18.62h65V246.59Z"/></g><path class="cls-7" d="M234.5,264.13H179.93a3.71,3.71,0,0,1-2.94-5.95c17-22.69,30.23-68.1,30.23-68.1s13.27,45.41,30.22,68.1A3.7,3.7,0,0,1,234.5,264.13Z"/><path class="cls-2" d="M82.63,2.08H137.2a3.71,3.71,0,0,1,2.94,6c-16.95,22.69-30.22,68.09-30.22,68.09S96.65,30.73,79.69,8A3.71,3.71,0,0,1,82.63,2.08Z"/><g class="cls-8"><path class="cls-4" d="M109.92,26.58a32.8,32.8,0,0,0-13.43,2.54,33.9,33.9,0,0,1-7,2v5.58a21.4,21.4,0,0,1,8,4.47c3.21,2.52,6.24,4.89,12.44,4.89s9.23-2.37,12.44-4.89c2.28-1.79,4.63-3.62,8.16-4.52v-5.5a33.44,33.44,0,0,1-7.17-2.05A32.84,32.84,0,0,0,109.92,26.58Z"/><path class="cls-5" d="M83.42,32.08v-.5a37.18,37.18,0,0,0,6.1-.44,33.9,33.9,0,0,0,7-2,32.8,32.8,0,0,1,13.43-2.54,32.84,32.84,0,0,1,13.43,2.54,33.44,33.44,0,0,0,7.17,2.05,37.55,37.55,0,0,0,5.9.41v.5h1.1V19.61l-1.1,0c-3.12,0-4.66-1.39-6.29-2.87s-3.46-3.13-7-3.13-5.26,1.59-7,3.13-3.17,2.87-6.28,2.87-4.67-1.39-6.3-2.87-3.45-3.13-7-3.13-5.26,1.59-7,3.13a10.82,10.82,0,0,1-3.46,2.39,7.42,7.42,0,0,1-2.83.48s-.68,0-1.9,0V32.08Z"/><path class="cls-6" d="M81.52,19.61c1.22,0,1.9,0,1.9,0a7.42,7.42,0,0,0,2.83-.48,10.82,10.82,0,0,0,3.46-2.39c1.7-1.54,3.46-3.13,7-3.13s5.27,1.59,7,3.13,3.17,2.87,6.3,2.87,4.65-1.39,6.28-2.87,3.46-3.13,7-3.13,5.26,1.59,7,3.13,3.17,2.87,6.29,2.87l1.1,0,5,.1V1.08h-65V19.63Z"/></g><path class="cls-7" d="M82.63,2.08H137.2a3.71,3.71,0,0,1,2.94,6c-16.95,22.69-30.22,68.09-30.22,68.09S96.65,30.73,79.69,8A3.71,3.71,0,0,1,82.63,2.08Z"/><rect class="cls-9" x="0.5" y="0.5" width="38" height="263" rx="3.71"/><rect class="cls-9" x="316.5" y="0.5" width="38" height="263" rx="3.71"/><path class="cls-9" d="M78.61,112.61c-6.13,8.67-18,25.43-21.88,30.83a3.7,3.7,0,0,0-.36,3.66l51.35,114.35a3.72,3.72,0,0,0,3.38,2.19h35.73a3.7,3.7,0,0,0,3.38-5.22L85,113.24A3.7,3.7,0,0,0,78.61,112.61Z"/><path class="cls-9" d="M280.81,250.21c5.11-21.48,14.9-62.17,16.57-69.07a3.68,3.68,0,0,0-.08-2L241.19,4.7a3.71,3.71,0,0,0-3.53-2.57H201.54A3.7,3.7,0,0,0,198,6.92l75.67,243.53A3.7,3.7,0,0,0,280.81,250.21Z"/></g></g></svg>